# xmcd
#
# Track frame offsets:
#	150
#	16274
#	49909
#	68001
#	83416
#	107740
#	123808
#	140929
#	155504
#	171040
#	188492
#	205610
#	221336
#	237332
#	260886
#	287776
#	315603
#
# Disc length: 4416
#
# Revision: 3
# Processed by: cddbd v1.5.1PL0 Copyright (c) Steve Scherf et al.
# Submitted via: CDex 1.51
# Normalized: r2:TDELIM( - )
#
DISCID=ec113e11
DTITLE=Various Artist - Orlando Trip 2 Disk 1
DYEAR=1997
DGENRE=New Age
TTITLE0=Encore - Le Disc-jockey
TTITLE1=DJ Pierre - I feel love (Feel the funk)
TTITLE2=Todd Terry - It's over love (Funky Green Dogs Miami Club Mix)
TTITLE3=Gala - Come into my life (Radio Edit)
TTITLE4=Ce Ce Peniston - Finally '97 (Classic funk mix)
TTITLE5=Fiocco - The SPirit (Radio edit)
TTITLE6=Poppers presents 'Aurra' - Every little time (Original vocal edit)
TTITLE7=Steve 'Silk' of Hurley and The voices of life Feat. Sharon Pass - The world is love (Silk's anthem of life 7")
TTITLE8=Ultra Nate - Free (radio edit)
TTITLE9=Laguna Vol. 1 - Spiller from Rio (DJ Don and Svenson Radio Edit)
TTITLE10=Carl Feat. Music Mind - Disco Fever (Radio edit)
TTITLE11=Antiloop - In my mind
TTITLE12=2 4 U - Goodlife
TTITLE13=Roef - Outhere (Extended)
TTITLE14=Karen Young - Hot Shot '97 (Roller Coaster Club Mix)
TTITLE15=Arman Van Helden - The Witch Doktor '97 (R.O.O.S Mix)
TTITLE16=Sash! Feat. La Trec - Stay (Original)
EXTD=YEAR: 1997
EXTT0=
EXTT1=
EXTT2=
EXTT3=
EXTT4=
EXTT5=
EXTT6=
EXTT7=
EXTT8=
EXTT9=
EXTT10=
EXTT11=
EXTT12=
EXTT13=
EXTT14=
EXTT15=
EXTT16=
PLAYORDER=
